<svg xmlns="http://www.w3.org/2000/svg" width="1080" height="1920" viewBox="0 0 1080 1920"><rect x="0" y="0" width="1080" height="1920" rx="0" fill="#fff9f1" stroke="none" stroke-width="0"/><text x="66" y="108" font-family="DejaVu Sans, Arial, sans-serif" font-size="30" font-weight="700" fill="#d85862" text-anchor="start">FamilySync</text><text x="66" y="190" font-family="DejaVu Sans, Arial, sans-serif" font-size="60" font-weight="700" fill="#24343a" text-anchor="start">La spesa, già condivisa.</text><text x="66" y="248" font-family="DejaVu Sans, Arial, sans-serif" font-size="28" font-weight="400" fill="#617277" text-anchor="start">Una lista viva: chi compra vede subito cosa manca.</text><rect x="66" y="410" width="948" height="1405" rx="52" fill="#26383d" stroke="none" stroke-width="0"/><rect x="80" y="424" width="920" height="1377" rx="40" fill="#fffdf9" stroke="none" stroke-width="0"/><rect x="486" y="433" width="108" height="16" rx="10" fill="#26383d" stroke="none" stroke-width="0"/><text x="108" y="492" font-family="DejaVu Sans, Arial, sans-serif" font-size="31" font-weight="700" fill="#24343a" text-anchor="start">Spesa</text><text x="972" y="492" font-family="DejaVu Sans, Arial, sans-serif" font-size="37" font-weight="400" fill="#d85862" text-anchor="end">＋</text><rect x="108" y="522" width="864" height="70" rx="18" fill="#42b9a4" stroke="none" stroke-width="0"/><text x="132" y="566" font-family="DejaVu Sans, Arial, sans-serif" font-size="22" font-weight="700" fill="#fff" text-anchor="start">Spesa settimanale</text><text x="948" y="566" font-family="DejaVu Sans, Arial, sans-serif" font-size="18" font-weight="700" fill="#fff" text-anchor="end">5 / 8</text><line x1="132" y1="612" x2="948" y2="612" stroke="#e5dfd7" stroke-width="8" stroke-linecap="round"/><line x1="132" y1="612" x2="652.32" y2="612" stroke="#f6cf67" stroke-width="8" stroke-linecap="round"/><text x="108" y="670" font-family="DejaVu Sans, Arial, sans-serif" font-size="22" font-weight="700" fill="#24343a" text-anchor="start">Da comprare</text><rect x="108" y="694" width="864" height="48" rx="15" fill="#fffdf9" stroke="#e5dfd7" stroke-width="2"/><rect x="124" y="708" width="20" height="20" rx="6" fill="none" stroke="#42b9a4" stroke-width="2"/><text x="162" y="730" font-family="DejaVu Sans, Arial, sans-serif" font-size="18" font-weight="500" fill="#24343a" text-anchor="start">Pane integrale · Luca</text><rect x="108" y="758" width="864" height="48" rx="15" fill="#fffdf9" stroke="#e5dfd7" stroke-width="2"/><rect x="124" y="772" width="20" height="20" rx="6" fill="none" stroke="#42b9a4" stroke-width="2"/><text x="162" y="794" font-family="DejaVu Sans, Arial, sans-serif" font-size="18" font-weight="500" fill="#24343a" text-anchor="start">Yogurt bianco · Sara</text><rect x="108" y="822" width="864" height="48" rx="15" fill="#fffdf9" stroke="#e5dfd7" stroke-width="2"/><rect x="124" y="836" width="20" height="20" rx="6" fill="none" stroke="#42b9a4" stroke-width="2"/><text x="162" y="858" font-family="DejaVu Sans, Arial, sans-serif" font-size="18" font-weight="500" fill="#24343a" text-anchor="start">Pomodori · Emma</text><text x="108" y="922" font-family="DejaVu Sans, Arial, sans-serif" font-size="22" font-weight="700" fill="#24343a" text-anchor="start">Già in carrello</text><text x="108" y="962" font-family="DejaVu Sans, Arial, sans-serif" font-size="18" font-weight="500" fill="#617277" text-anchor="start">Latte · 2</text><text x="972" y="962" font-family="DejaVu Sans, Arial, sans-serif" font-size="16" font-weight="700" fill="#42b9a4" text-anchor="end">Completato</text><circle cx="132" cy="1740" r="9" fill="#c8d1cd"/><text x="132" y="1770" font-family="DejaVu Sans, Arial, sans-serif" font-size="14" font-weight="500" fill="#617277" text-anchor="middle">Home</text><circle cx="295.2" cy="1740" r="9" fill="#c8d1cd"/><text x="295.2" y="1770" font-family="DejaVu Sans, Arial, sans-serif" font-size="14" font-weight="500" fill="#617277" text-anchor="middle">Calendario</text><circle cx="458.4" cy="1740" r="9" fill="#f26f72"/><text x="458.4" y="1770" font-family="DejaVu Sans, Arial, sans-serif" font-size="14" font-weight="700" fill="#d85862" text-anchor="middle">Spesa</text><circle cx="621.5999999999999" cy="1740" r="9" fill="#c8d1cd"/><text x="621.5999999999999" y="1770" font-family="DejaVu Sans, Arial, sans-serif" font-size="14" font-weight="500" fill="#617277" text-anchor="middle">Faccende</text><circle cx="784.8" cy="1740" r="9" fill="#c8d1cd"/><text x="784.8" y="1770" font-family="DejaVu Sans, Arial, sans-serif" font-size="14" font-weight="500" fill="#617277" text-anchor="middle">Chat</text><circle cx="948" cy="1740" r="9" fill="#c8d1cd"/><text x="948" y="1770" font-family="DejaVu Sans, Arial, sans-serif" font-size="14" font-weight="500" fill="#617277" text-anchor="middle">Famiglia</text><rect x="502" y="1773" width="76" height="7" rx="4" fill="#c9d0cd" stroke="none" stroke-width="0"/><text x="1014" y="1848" font-family="DejaVu Sans, Arial, sans-serif" font-size="22" font-weight="700" fill="#d85862" text-anchor="end">03 / 08</text></svg>